<!-- Generator: Adobe Illustrator 22.1.0, SVG Export Plug-In  -->
<svg version="1.1"
	 xmlns="http://www.w3.org/2000/svg" xmlns:xlink="http://www.w3.org/1999/xlink" xmlns:a="http://ns.adobe.com/AdobeSVGViewerExtensions/3.0/"
	 x="0px" y="0px" width="81.48px" height="29.438px" viewBox="0 0 81.48 29.438" enable-background="new 0 0 81.48 29.438"
	 xml:space="preserve">
<defs>
</defs>
<path fill="#00DA48" d="M39.251,29.438h-9.813V13.481l-3.668-3.668h-12.29l-3.668,3.668v15.958H0v-17.99
	c0-1.301,0.517-2.549,1.437-3.469l6.542-6.542C8.899,0.517,10.147,0,11.448,0h16.355c1.301,0,2.549,0.517,3.469,1.437l6.542,6.542
	c0.921,0.92,1.437,2.168,1.437,3.469V29.438z M73.501,28.001l6.542-6.542c0.921-0.92,1.437-2.168,1.437-3.469v-6.542
	c0-1.301-0.517-2.549-1.437-3.469l-6.542-6.542C72.581,0.517,71.333,0,70.032,0H53.677c-1.301,0-2.549,0.517-3.469,1.437
	l-6.542,6.542c-0.921,0.92-1.437,2.168-1.437,3.469v8.177h9.813v9.813h17.99C71.333,29.438,72.581,28.921,73.501,28.001z
	 M52.042,13.481l3.668-3.668h12.29l3.668,3.668v2.477l-3.668,3.668H52.042V13.481z M22.988,19.626c-2.71,0-4.906,2.197-4.906,4.906
	s2.197,4.906,4.906,4.906s4.906-2.197,4.906-4.906S25.698,19.626,22.988,19.626z M78.877,27.821h0.336
	c0.024,0,0.044-0.008,0.06-0.024c0.016-0.016,0.024-0.036,0.024-0.06v-0.158c0-0.024-0.008-0.044-0.024-0.06
	c-0.016-0.016-0.036-0.024-0.06-0.024h-1.007c-0.024,0-0.044,0.008-0.06,0.024c-0.016,0.016-0.024,0.036-0.024,0.06v0.158
	c0,0.024,0.008,0.044,0.024,0.06c0.016,0.016,0.036,0.024,0.06,0.024h0.333v1.534c0,0.024,0.008,0.044,0.024,0.06
	c0.016,0.016,0.036,0.024,0.06,0.024h0.172c0.024,0,0.044-0.008,0.06-0.024c0.016-0.016,0.024-0.036,0.024-0.06V27.821z
	 M80.148,27.579c-0.022-0.055-0.061-0.083-0.117-0.083h-0.222c-0.024,0-0.044,0.008-0.06,0.024c-0.016,0.016-0.024,0.036-0.024,0.06
	v1.776c0,0.024,0.008,0.044,0.024,0.06c0.016,0.016,0.036,0.024,0.06,0.024h0.153c0.024,0,0.044-0.008,0.06-0.024
	c0.016-0.016,0.024-0.036,0.024-0.06v-1.071l-0.019-0.25l0.025-0.008l0.158,0.411c0.02,0.055,0.052,0.083,0.094,0.083h0.144
	c0.041,0,0.071-0.028,0.092-0.083l0.161-0.411l0.025,0.008l-0.019,0.25v1.071c0,0.024,0.008,0.044,0.024,0.06
	c0.016,0.016,0.036,0.024,0.06,0.024h0.153c0.024,0,0.044-0.008,0.06-0.024c0.016-0.016,0.024-0.036,0.024-0.06v-1.776
	c0-0.024-0.008-0.044-0.024-0.06c-0.016-0.016-0.036-0.024-0.06-0.024h-0.222c-0.055,0-0.094,0.028-0.117,0.083l-0.222,0.58H80.37
	L80.148,27.579z"/>
</svg>
